<?xml version="1.0" encoding="UTF-8" standalone="no"?>
<svg
   xmlns:dc="http://purl.org/dc/elements/1.1/"
   xmlns:cc="http://creativecommons.org/ns#"
   xmlns:rdf="http://www.w3.org/1999/02/22-rdf-syntax-ns#"
   xmlns:svg="http://www.w3.org/2000/svg"
   xmlns="http://www.w3.org/2000/svg"
   xmlns:xlink="http://www.w3.org/1999/xlink"
   xmlns:sodipodi="http://sodipodi.sourceforge.net/DTD/sodipodi-0.dtd"
   xmlns:inkscape="http://www.inkscape.org/namespaces/inkscape"
   version="1.1"
   id="svg2"
   viewBox="0 0 550 155"
   inkscape:version="0.91 r13725"
   sodipodi:docname="logo_claim.svg">
  <sodipodi:namedview
     pagecolor="#ffffff"
     bordercolor="#666666"
     borderopacity="1"
     objecttolerance="10"
     gridtolerance="10"
     guidetolerance="10"
     inkscape:pageopacity="0"
     inkscape:pageshadow="2"
     inkscape:window-width="1280"
     inkscape:window-height="971"
     id="namedview71"
     showgrid="false"
     inkscape:zoom="1.2727273"
     inkscape:cx="1.0039397"
     inkscape:cy="74.089825"
     inkscape:window-x="-8"
     inkscape:window-y="-8"
     inkscape:window-maximized="1"
     inkscape:current-layer="svg2" />
  <title
     id="title4188">WGHB</title>
  <defs
     id="defs4">
    <linearGradient
       y2="34.928036"
       x2="137.49095"
       y1="34.928036"
       x1="-0.50123596"
       gradientUnits="userSpaceOnUse"
       id="linearGradient11841"
       xlink:href="#linearGradient11831" />
    <linearGradient
       id="linearGradient11831">
      <stop
         id="stop11833"
         offset="0"
         style="stop-color:#f5f5f5;stop-opacity:1" />
      <stop
         id="stop11835"
         offset="1"
         style="stop-color:#000000;stop-opacity:0;" />
    </linearGradient>
  </defs>
  <metadata
     id="metadata7">
    <rdf:RDF>
      <cc:Work
         rdf:about="">
        <dc:format>image/svg+xml</dc:format>
        <dc:type
           rdf:resource="http://purl.org/dc/dcmitype/StillImage" />
        <dc:title>WGHB</dc:title>
        <cc:license
           rdf:resource="http://creativecommons.org/publicdomain/zero/1.0/" />
      </cc:Work>
      <cc:License
         rdf:about="http://creativecommons.org/publicdomain/zero/1.0/">
        <cc:permits
           rdf:resource="http://creativecommons.org/ns#Reproduction" />
        <cc:permits
           rdf:resource="http://creativecommons.org/ns#Distribution" />
        <cc:permits
           rdf:resource="http://creativecommons.org/ns#DerivativeWorks" />
      </cc:License>
    </rdf:RDF>
  </metadata>
  <path
     id="path11599"
     d="M 42.200777,61.557809 A 41.81062,291.59543 86.552742 0 0 -0.10612205,86.074835 41.81062,291.59543 86.552742 0 0 293.55447,110.26054 41.81062,291.59543 86.552742 0 0 549.88769,72.32222 37.154702,290.78197 87.628794 0 1 329.37056,94.774043 37.154702,290.78197 87.628794 0 1 35.629325,69.966935 37.154702,290.78197 87.628794 0 1 42.200777,61.557809 Z"
     style="opacity:1;fill:#9acd32;fill-opacity:1;fill-rule:evenodd;stroke:none;stroke-width:0.2;stroke-miterlimit:4;stroke-dasharray:none;stroke-opacity:1" />
  <rect
     y="41.486389"
     x="78.557693"
     height="43.61636"
     width="1.3363875"
     id="rect4960"
     style="opacity:1;fill:#ffffff;fill-opacity:1;fill-rule:evenodd;stroke:none;stroke-width:0.2;stroke-miterlimit:4;stroke-dasharray:none;stroke-opacity:1" />
  <g
     style="fill:#ffffff;opacity:0.3"
     id="g4955"
     transform="matrix(0.93547134,0,0,0.93225807,-71.78591,-346.43758)">
    <path
       style="opacity:1;fill:#ffffff;fill-opacity:1;fill-rule:evenodd;stroke:none;stroke-width:0.2;stroke-miterlimit:4;stroke-dasharray:none;stroke-opacity:1"
       d="m 153.54318,372.02446 91.59476,2.94117 35.53391,33.15647 -82.79925,8.67558 z"
       id="rect4913" />
    <path
       style="opacity:1;fill:#ffffff;fill-opacity:1;fill-rule:evenodd;stroke:none;stroke-width:0.2;stroke-miterlimit:4;stroke-dasharray:none;stroke-opacity:1"
       d="m 125.78054,405.43519 74.87404,11.55221 -0.83339,50.66019 -73.28266,-17.43918 z"
       id="rect4913-9" />
    <path
       style="opacity:1;fill:#ffffff;fill-opacity:1;fill-rule:evenodd;stroke:none;stroke-width:0.2;stroke-miterlimit:4;stroke-dasharray:none;stroke-opacity:1"
       d="m 199.76471,416.64009 80.99252,-8.63905 -1.02094,37.09248 -80.11542,22.33366 z"
       id="rect4913-9-8" />
  </g>
  <path
     id="path11599-4"
     d="m 341.42638,67.31715 a 11.973455,101.26366 89.583972 0 0 -16.59849,6.347885 11.973455,101.26366 89.583972 0 0 98.52546,11.583325 11.973455,101.26366 89.583972 0 0 91.07867,-6.795453 100.60723,10.679669 0.50810287 0 1 -77.47638,2.929789 100.60723,10.679669 0.50810287 0 1 -98.50043,-11.762561 100.60723,10.679669 0.50810287 0 1 2.97117,-2.302985 z"
     style="opacity:1;fill:#008080;fill-opacity:1;fill-rule:evenodd;stroke:none;stroke-width:0.2;stroke-miterlimit:4;stroke-dasharray:none;stroke-opacity:1" />
  <path
     id="path11079-0"
     d="m 55.336039,74.863928 -3.106607,-0.624855 -0.161069,-7.5623 C 51.97968,62.517503 51.8582,55.767479 51.798217,51.676712 l -0.109076,-7.437769 3.334544,-1.222601 c 1.833991,-0.672456 3.475528,-1.322137 3.647889,-1.44376 0.234195,-0.165252 0.296619,0.25281 0.247086,1.654964 -0.04284,1.211105 0.01656,1.713266 0.16759,1.416706 0.135119,-0.265433 0.204485,3.661639 0.164325,9.302285 -0.04032,5.675876 0.01609,8.84836 0.134839,7.57964 0.170377,-1.819674 0.18758,-1.613366 0.103538,1.242355 -0.05538,1.883404 -0.100751,5.526808 -0.100751,8.096419 0,4.305625 -0.03714,4.670156 -0.47274,4.647931 -0.260014,-0.01324 -1.870728,-0.305305 -3.579347,-0.648954 z"
     style="opacity:1;fill:#a0522d;fill-opacity:1;fill-rule:evenodd;stroke:none;stroke-width:0.2;stroke-miterlimit:4;stroke-dasharray:none;stroke-opacity:1" />
  <path
     id="path4173-7-4-5"
     d="M 163.44947,32.097699 C 148.97704,17.763224 133.77698,2.3882375 133.92863,2.2371091 c 0.10569,-0.1053265 8.79938,0.1648792 17.88401,0.555775 l 5.86225,0.2522317 2.06264,1.7892643 c 3.82849,3.3210668 25.50812,23.5805919 29.25398,27.3377129 0.99471,0.997712 1.76897,1.853469 1.72059,1.901704 -0.1159,0.115497 -5.14585,0.731459 -13.7135,1.67936 -3.82131,0.422779 -7.37811,0.818215 -7.90399,0.878756 l -0.95616,0.110072 -4.68898,-4.644286 z"
     style="opacity:0.3;fill:#dcdcdc;fill-opacity:1;fill-rule:evenodd;stroke-width:0.1;stroke-miterlimit:4;stroke-dasharray:none" />
  <path
     id="path11087-5-6-8"
     d="m 169.59078,74.118047 c -0.31996,-0.83094 0.3407,-36.45776 0.68193,-36.773255 0.0936,-0.08642 17.00218,-1.95983 17.08475,-1.892875 0.0364,0.02955 -0.0294,2.045299 -0.14599,4.479667 -0.11662,2.434369 -0.42355,9.508035 -0.68207,15.719242 -0.25852,6.211216 -0.52433,11.912832 -0.59068,12.670263 l -0.12067,1.377151 -2.97716,0.943734 c -3.05558,0.968597 -11.11469,3.299308 -12.4153,3.590527 -0.57192,0.128064 -0.75088,0.103508 -0.83481,-0.114454 z"
     style="opacity:0.3;fill:#f5f5f5;fill-opacity:1;fill-rule:evenodd;stroke:none;stroke-width:0.2;stroke-miterlimit:4;stroke-dasharray:none;stroke-opacity:1" />
  <path
     id="path11089-3-0-3"
     d="m 187.798,70.007041 c -0.34987,-0.126247 -0.72502,-0.38781 -0.83365,-0.581263 -0.21246,-0.378338 -0.15088,-3.752152 0.338,-18.51995 0.32625,-9.854704 0.59955,-14.724867 0.85276,-15.196384 0.21028,-0.391549 1.00887,-0.66512 2.43224,-0.833197 l 1.01046,-0.11931 -0.11079,1.573782 c -0.061,0.865583 -0.27857,6.314044 -0.4836,12.107702 -0.20505,5.793648 -0.42089,11.430724 -0.47968,12.526817 -0.21319,3.976099 -0.4806,7.892319 -0.58644,8.588455 -0.10291,0.676754 -0.14252,0.711043 -0.80569,0.69731 -0.3836,-0.0075 -0.98373,-0.117734 -1.33361,-0.243962 z"
     style="opacity:0.3;fill:#dcdcdc;fill-opacity:1;fill-rule:evenodd;stroke:none;stroke-width:0.2;stroke-miterlimit:4;stroke-dasharray:none;stroke-opacity:1" />
  <path
     id="path4173-7-4"
     d="M 136.69637,34.132585 C 120.83938,18.426759 104.18515,1.5808647 104.3513,1.415277 c 0.11576,-0.1153483 9.64121,0.1806623 19.59495,0.608951 l 6.42308,0.2763586 2.25998,1.9604455 c 4.19475,3.6387897 27.94843,25.8364979 32.05265,29.9530699 1.08988,1.093156 1.93823,2.030793 1.88521,2.083634 -0.12699,0.126544 -5.63815,0.801443 -15.02544,1.840025 -4.1869,0.463221 -8.08398,0.896497 -8.66017,0.962827 l -1.04763,0.120597 -5.13756,-5.0886 z"
     style="opacity:0.3;fill:#c0c0c0;fill-opacity:1;fill-rule:evenodd;stroke-width:0.1;stroke-miterlimit:4;stroke-dasharray:none" />
  <path
     id="path11087-5-6"
     d="m 143.4252,80.172961 c -0.35057,-0.910434 0.37331,-39.945618 0.74717,-40.291299 0.10246,-0.09473 18.62875,-2.147326 18.71923,-2.073957 0.0399,0.03226 -0.0323,2.240962 -0.15996,4.908227 -0.12778,2.667265 -0.46407,10.417648 -0.74732,17.223076 -0.28325,6.805428 -0.57449,13.052508 -0.6472,13.882404 l -0.1322,1.508897 -3.26199,1.034033 c -3.3479,1.061254 -12.17801,3.614933 -13.60305,3.934017 -0.62664,0.140314 -0.82272,0.113428 -0.91468,-0.125398 z"
     style="opacity:0.3;fill:#dcdcdc;fill-opacity:1;fill-rule:evenodd;stroke:none;stroke-width:0.2;stroke-miterlimit:4;stroke-dasharray:none;stroke-opacity:1" />
  <path
     id="path11089-3-0"
     d="m 163.37429,75.668653 c -0.38336,-0.138319 -0.79439,-0.424904 -0.91341,-0.636862 -0.23279,-0.414529 -0.16532,-4.111109 0.37035,-20.291735 0.35745,-10.797487 0.65689,-16.133565 0.93433,-16.650203 0.23039,-0.428998 1.10538,-0.728737 2.66492,-0.912886 l 1.10713,-0.13074 -0.12139,1.724351 c -0.0668,0.948396 -0.30521,6.918101 -0.52987,13.266023 -0.22466,6.347923 -0.46115,12.524281 -0.52555,13.725235 -0.2336,4.356498 -0.52659,8.647374 -0.64256,9.41011 -0.11274,0.74149 -0.15615,0.77906 -0.88276,0.764014 -0.4203,-0.0084 -1.07784,-0.128987 -1.46119,-0.267307 z"
     style="opacity:0.3;fill:#a9a9a9;fill-opacity:1;fill-rule:evenodd;stroke:none;stroke-width:0.2;stroke-miterlimit:4;stroke-dasharray:none;stroke-opacity:1" />
  <path
     id="path11063-8"
     d="M 101.44803,86.603565 88.40177,83.355084 88.254125,80.470388 C 88.172926,78.883806 88.106058,69.245591 88.105544,59.052123 88.105095,48.747324 88.015271,40.46355 87.903463,40.394656 87.792834,40.326508 86.989049,40.209612 86.117265,40.134845 85.24549,40.060078 80.694758,39.607466 76.004539,39.129003 l -8.527673,-0.869945 -4.072817,0.402399 c -2.240061,0.221318 -4.18471,0.471303 -4.321457,0.555524 -0.136747,0.08428 -0.248629,0.656328 -0.248629,1.271339 0,1.420397 -0.287677,1.657489 -3.805498,3.13633 l -2.654662,1.115969 0.126691,1.492974 c 0.190453,2.244402 0.250323,27.95511 0.06558,28.141319 -0.149479,0.150625 -5.250314,-0.980726 -5.716628,-1.267927 -0.116429,-0.07178 -0.268696,-2.245772 -0.338379,-4.831259 C 46.07447,52.074628 45.703387,36.289261 45.700347,33.788162 l -0.0028,-2.913446 8.104241,-8.800526 C 62.163024,12.994584 65.490683,9.4190109 69.126065,5.6082755 l 2.109348,-2.2110924 2.845919,2.7325789 c 1.565249,1.5029212 3.567579,3.4667508 4.449625,4.364021 21.526303,21.898863 27.690373,28.202215 29.644443,30.314245 l 1.24919,1.35018 2.42002,-0.136771 c 1.331,-0.07533 2.97864,-0.207922 3.6614,-0.294874 l 1.24139,-0.158101 -0.14894,3.193879 c -0.082,1.756635 -0.19879,5.777855 -0.2597,8.936038 -0.65998,34.220994 -0.73986,36.185923 -1.47002,36.164593 -0.20551,-0.0065 -6.24446,-1.472734 -13.4199,-3.259407 z"
     style="opacity:1;fill:#ffa500;fill-opacity:1;fill-rule:evenodd;stroke:none;stroke-width:0.2;stroke-miterlimit:4;stroke-dasharray:none;stroke-opacity:1" />
  <path
     id="path11077-8"
     d="M 69.199864,83.099785 C 64.391008,81.857178 60.225214,80.767257 59.942524,80.677741 59.508615,80.540317 59.408641,80.29119 59.3008,79.078611 59.142799,77.301876 58.634763,39.77489 58.766945,39.645418 c 0.08578,-0.084 16.542717,1.581306 18.999012,1.922615 l 1.004312,0.13955 0,21.843785 c 0,20.656182 -0.02254,21.842807 -0.413543,21.825746 -0.227442,-0.0096 -4.348034,-1.034713 -9.156862,-2.277329 z m 8.352758,-10.188378 0.08223,-5.769205 -0.909137,-0.233679 c -1.142791,-0.293736 -7.163859,-1.416287 -7.596598,-1.416287 -0.264701,0 -0.308912,1.005515 -0.249266,5.670022 0.03966,3.118515 0.07503,5.674953 0.07821,5.680985 0.04836,0.09367 7.498944,1.8028 7.921946,1.817213 l 0.590759,0.02023 0.08223,-5.769195 0,9e-6 z m -9.729996,-2.028016 -0.04069,-5.717473 -3.780913,-0.75154 c -2.079488,-0.413345 -3.902487,-0.75649 -4.051068,-0.76255 -0.284215,-0.01165 -0.412225,7.78759 -0.164063,9.995103 0.118992,1.058476 0.156935,1.104986 1.105156,1.355046 1.052611,0.277589 6.549282,1.553823 6.813347,1.581958 0.08737,0.0096 0.140489,-2.555953 0.11815,-5.700544 z M 77.45829,52.127198 C 77.36652,48.849584 77.274451,46.146557 77.253795,46.120473 77.1827,46.03079 69.971104,45.126481 69.326377,45.126481 l -0.645531,0 -0.02638,5.649353 c -0.01946,4.167231 0.04864,5.708925 0.259518,5.876461 0.307396,0.244168 6.624325,1.36725 7.925033,1.408968 l 0.786235,0.02526 -0.166925,-5.959301 z m -9.706133,3.984872 c 0.104511,-0.266682 -0.07596,-11.210217 -0.18512,-11.218682 -0.01169,-8.02e-4 -1.601378,-0.209208 -3.532546,-0.462866 -1.931187,-0.253658 -3.767994,-0.461207 -4.081826,-0.461207 l -0.570591,0 0.06464,5.535208 c 0.03564,3.044354 0.132669,5.601752 0.215823,5.683101 0.183071,0.179059 6.16324,1.219673 7.208087,1.254279 0.466725,0.01547 0.794327,-0.107117 0.881579,-0.329833 z"
     style="opacity:1;fill:#ffa500;fill-opacity:1;fill-rule:evenodd;stroke:none;stroke-width:0.2;stroke-miterlimit:4;stroke-dasharray:none;stroke-opacity:1" />
  <path
     id="path11083-3"
     d="M 42.356065,32.739549 C 51.066454,23.078437 71.800082,0.41127236 71.926726,0.41127236 c 0.09358,0 0.448792,0.28983904 0.789369,0.64409714 l 0.619208,0.6441064 -0.835386,0.7914405 C 71.547074,3.3936219 61.588514,14.10467 51.832147,24.720414 45.523113,31.585153 45.21726,31.959519 45.21726,32.816833 l 0,0.898883 -1.870643,0 -1.870643,0 0.880091,-0.976167 z"
     style="opacity:1;fill:#800000;fill-opacity:1;fill-rule:evenodd;stroke:none;stroke-width:0.2;stroke-miterlimit:4;stroke-dasharray:none;stroke-opacity:1" />
  <path
     id="path11085-2"
     d="M 107.43125,40.454022 C 104.47603,37.405463 83.664665,16.480139 77.212354,10.069671 L 71.031499,3.9288965 72.141594,2.8514952 73.251671,1.7741031 93.599586,21.9941 l 20.347894,20.219988 -2.40503,0 -2.40504,0 -1.70616,-1.760066 z"
     style="opacity:1;fill:#cd853f;fill-opacity:1;fill-rule:evenodd;stroke:none;stroke-width:0.2;stroke-miterlimit:4;stroke-dasharray:none;stroke-opacity:1" />
  <path
     id="path11087-5"
     d="m 115.08452,87.301006 c -0.3872,-1.005571 0.4123,-44.119188 0.82523,-44.500985 0.11316,-0.10458 20.57512,-2.371674 20.67504,-2.290651 0.044,0.03561 -0.0356,2.475099 -0.17668,5.421043 -0.14112,2.945945 -0.51254,11.506107 -0.82539,19.022577 -0.31284,7.516461 -0.63452,14.416243 -0.71483,15.332849 l -0.146,1.666541 -3.60281,1.142073 c -3.6977,1.172137 -13.45039,3.992618 -15.02433,4.345049 -0.6921,0.154979 -0.90868,0.125277 -1.01023,-0.138496 z"
     style="opacity:1;fill:#f0e68c;fill-opacity:1;fill-rule:evenodd;stroke:none;stroke-width:0.2;stroke-miterlimit:4;stroke-dasharray:none;stroke-opacity:1" />
  <path
     id="path11089-3"
     d="m 137.11791,82.326085 c -0.42341,-0.152778 -0.87738,-0.469298 -1.00885,-0.703416 -0.25711,-0.457842 -0.1826,-4.540638 0.40904,-22.411829 0.3948,-11.925623 0.72553,-17.819218 1.03196,-18.389835 0.25447,-0.473811 1.22086,-0.804883 2.94336,-1.008274 l 1.22281,-0.144388 -0.13408,1.90451 c -0.0737,1.047485 -0.33711,7.640899 -0.58524,14.652067 -0.24813,7.011158 -0.50933,13.832826 -0.58045,15.159271 -0.25801,4.811664 -0.58162,9.550854 -0.70969,10.393279 -0.12452,0.81897 -0.17246,0.860465 -0.975,0.843843 -0.46421,-0.0096 -1.19046,-0.142468 -1.61386,-0.295228 z"
     style="opacity:1;fill:#ffa500;fill-opacity:1;fill-rule:evenodd;stroke:none;stroke-width:0.2;stroke-miterlimit:4;stroke-dasharray:none;stroke-opacity:1" />
  <path
     id="path11091-6"
     d="m 68.787471,40.41304 c -5.684448,-0.550172 -10.5828,-1.047653 -10.88521,-1.105537 -0.302382,-0.05799 1.417426,-0.305454 3.821878,-0.550126 4.268041,-0.434329 4.61525,-0.422974 14.650416,0.4792 13.611492,1.223663 13.51207,1.205335 9.384462,1.730998 -4.644494,0.591508 -5.378119,0.56754 -16.971546,-0.554535 z"
     style="opacity:1;fill:#696969;fill-opacity:1;fill-rule:evenodd;stroke:none;stroke-width:0.2;stroke-miterlimit:4;stroke-dasharray:none;stroke-opacity:1" />
  <path
     id="path11093-3"
     d="M 79.68226,85.012611 C 79.42842,84.448101 79.277847,49.944903 79.509526,45.429688 l 0.18266,-3.560144 2.304767,-0.267353 c 1.267639,-0.147036 3.056709,-0.276237 3.975735,-0.287108 l 1.670967,-0.01967 0.02236,1.780063 c 0.05781,4.600069 -0.02161,19.172894 -0.160311,29.386256 l -0.153408,11.298483 -2.908165,0.691065 c -4.357267,1.035403 -4.539123,1.056854 -4.761905,0.561405 z"
     style="opacity:1;fill:#f0e68c;fill-opacity:1;fill-rule:evenodd;stroke:none;stroke-width:0.2;stroke-miterlimit:4;stroke-dasharray:none;stroke-opacity:1" />
  <path
     id="path4197-2"
     d="m 61.412636,73.84511 c -0.584118,-0.112113 -0.59118,-0.164264 -0.59118,-4.363126 l 0,-4.249643 0.939793,0.109336 c 0.516895,0.06013 0.980355,0.242685 1.029916,0.405653 0.04958,0.162977 0.164653,2.093208 0.255768,4.289431 l 0.165625,3.993141 -0.604371,-0.03561 c -0.332401,-0.01958 -0.8704,-0.0867 -1.195551,-0.149133 z"
     style="opacity:1;fill:#008080;fill-opacity:1;fill-rule:evenodd;stroke-width:0.1;stroke-miterlimit:4;stroke-dasharray:none" />
  <path
     id="path4201-0"
     d="m 65.091096,54.968581 -0.853926,-0.08651 0,-3.991947 c 0,-4.509817 0.129226,-4.911136 1.510796,-4.69186 l 0.853926,0.135551 0,3.978831 c 0,4.436317 -0.117084,4.797167 -1.510796,4.655957 z"
     style="opacity:1;fill:#008080;fill-opacity:1;fill-rule:evenodd;stroke-width:0.1;stroke-miterlimit:4;stroke-dasharray:none" />
  <path
     id="path4203-3"
     d="M 70.502265,55.786889 C 69.909999,55.630326 69.820578,55.118451 69.60672,50.660253 l -0.18528,-3.862206 0.757882,0.0047 c 1.318574,0.0075 1.521712,0.322486 1.717263,2.667227 0.09968,1.195099 0.190621,3.144992 0.202109,4.333117 0.02254,2.322945 -0.03695,2.396742 -1.596429,1.984479 z"
     style="opacity:1;fill:#008080;fill-opacity:1;fill-rule:evenodd;stroke-width:0.1;stroke-miterlimit:4;stroke-dasharray:none" />
  <path
     id="path4205-1"
     d="m 74.799418,56.464566 c -0.476997,-0.0987 -0.946444,-0.258301 -1.043219,-0.354734 -0.09678,-0.09645 -0.222885,-2.113223 -0.280258,-4.481728 l -0.104295,-4.306361 0.884778,0.0047 c 1.602995,0.0075 1.664634,0.146942 1.75573,3.97938 0.04546,1.913563 -0.01366,3.897604 -0.131378,4.409012 -0.204297,0.887342 -0.253718,0.921631 -1.08133,0.75044 z"
     style="opacity:1;fill:#008080;fill-opacity:1;fill-rule:evenodd;stroke-width:0.1;stroke-miterlimit:4;stroke-dasharray:none" />
  <path
     id="path4207-1"
     d="m 69.754861,71.439036 0,-4.423779 0.940429,0.211361 c 0.517241,0.116244 1.019748,0.290063 1.116672,0.386254 0.230772,0.228999 0.397145,6.811469 0.192689,7.623298 -0.133399,0.529681 -0.31966,0.626654 -1.203793,0.626654 l -1.045997,0 0,-4.423788 z"
     style="opacity:1;fill:#008080;fill-opacity:1;fill-rule:evenodd;stroke-width:0.1;stroke-miterlimit:4;stroke-dasharray:none" />
  <path
     id="path4209-8"
     d="m 74.287257,76.725405 c -0.585278,-0.112337 -0.59119,-0.15771 -0.59119,-4.540078 l 0,-4.426613 0.853926,0.159015 c 0.469663,0.08735 0.964499,0.259494 1.099628,0.382319 0.312579,0.284106 0.534173,5.832729 0.296114,7.414762 -0.186551,1.239688 -0.253232,1.280335 -1.658478,1.010595 z"
     style="opacity:1;fill:#008080;fill-opacity:1;fill-rule:evenodd;stroke-width:0.1;stroke-miterlimit:4;stroke-dasharray:none" />
  <path
     id="path4211-3"
     d="m 65.383815,74.634565 c -0.749275,-0.14629 -0.883908,-0.940313 -0.883908,-5.213122 l 0,-3.495632 0.853945,0.158996 c 0.469653,0.08735 0.930167,0.231797 1.02333,0.320772 0.09317,0.08894 0.253438,2.017574 0.356116,4.285814 0.205139,4.532144 0.296722,4.264549 -1.349483,3.943172 z"
     style="opacity:1;fill:#008080;fill-opacity:1;fill-rule:evenodd;stroke-width:0.1;stroke-miterlimit:4;stroke-dasharray:none" />
  <path
     id="path4245-7"
     d="m 62.260192,54.495963 c -0.178816,-0.03375 -0.362944,-0.06302 -0.409147,-0.06498 -0.04621,-9.32e-4 -0.07362,-0.0206 -0.06071,-0.0413 0.01291,-0.0207 -0.07886,-0.05864 -0.203709,-0.08409 -0.124885,-0.02545 -0.216543,-0.02937 -0.20368,-0.0084 0.03153,0.0509 -0.05706,0.04754 -0.365423,-0.01426 l -0.259509,-0.05193 -0.02638,-0.376241 c -0.03199,-0.455436 -0.121275,-5.845044 -0.120723,-7.284721 l 3.74e-4,-1.029902 0.136607,0 c 0.07512,0 0.15004,0.02163 0.166477,0.0482 0.01656,0.02648 0.0725,0.03468 0.12467,0.01818 0.05809,-0.01836 0.08373,-0.01193 0.06614,0.01632 -0.03789,0.06097 0.172585,0.111824 0.315422,0.07616 0.06184,-0.01548 0.273148,0.0056 0.469448,0.04531 0.426415,0.08791 0.468942,0.08791 0.254064,5.6e-5 -0.159937,-0.06544 -0.157514,-0.0661 0.150695,-0.04456 0.472254,0.03291 0.480206,0.0413 0.515688,0.539572 0.01674,0.23423 0.02638,0.906957 0.0218,1.49496 -0.0056,0.64943 -0.0188,0.923728 -0.03489,0.698774 -0.01459,-0.203661 -0.01805,1.038014 -0.0084,2.75926 0.0096,1.721256 0.0056,3.184547 -0.01253,3.251726 -0.03489,0.138319 -0.05051,0.139913 -0.516698,0.05193 z m 0.17323,-0.21909 c 0.139797,-0.108067 0.179265,-0.418248 0.195785,-1.539093 0.0096,-0.610992 0.0075,-1.006764 -0.0019,-0.879464 -0.119459,1.456588 -0.205121,2.09442 -0.321718,2.395419 -0.03667,0.09474 0.02217,0.105326 0.128553,0.02312 z m -1.419783,-0.7869 c -0.01291,-0.03188 -0.02339,-0.0056 -0.02339,0.05789 0,0.06358 0.01076,0.08968 0.02339,0.0578 0.01291,-0.03188 0.01291,-0.0839 0,-0.11573 z m -0.04443,-0.370302 c -0.01104,-0.05733 -0.02021,-0.01072 -0.02021,0.104161 0,0.114565 0.0096,0.16142 0.02021,0.104152 0.01104,-0.05733 0.01104,-0.151007 0,-0.208285 z m -0.04649,-0.416598 c -0.01104,-0.05733 -0.02021,-0.01072 -0.02021,0.104151 0,0.114575 0.0096,0.16144 0.02021,0.104152 0.01104,-0.05733 0.01104,-0.151007 0,-0.208294 z m -0.04593,-0.48539 c -0.01076,-0.07039 -0.01964,-0.02387 -0.02011,0.103509 -3.37e-4,0.127299 0.0084,0.184866 0.01946,0.127933 0.01104,-0.05687 0.01132,-0.161075 5.14e-4,-0.231442 z m -0.04687,-0.532413 c -0.01104,-0.05752 -0.02058,-0.02135 -0.02114,0.08055 -5.06e-4,0.101793 0.0084,0.148946 0.02021,0.104683 0.01169,-0.04428 0.01197,-0.127561 8.04e-4,-0.185147 z m -0.04715,-0.809694 c -0.01169,-0.04503 -0.02217,-0.01939 -0.0232,0.05687 -8.05e-4,0.07635 0.0096,0.113223 0.02142,0.08176 0.01282,-0.03142 0.01356,-0.09378 9.36e-4,-0.13886 z m 1.923338,-3.877503 c -0.02881,-0.348553 -0.03807,-0.09698 -0.03751,1.018342 l 5.23e-4,1.481209 0.03751,-1.018333 c 0.02058,-0.560091 0.0203,-1.226637 -5.24e-4,-1.481218 z m -0.09764,-1.03875 c 0,-0.02396 -0.02414,-0.05836 -0.0537,-0.07654 -0.0333,-0.02051 -0.04097,-0.01268 -0.02058,0.02051 0.04331,0.06992 0.06081,0.07197 -0.558252,-0.06638 -0.294832,-0.066 -0.548364,-0.107573 -0.563406,-0.09257 -0.01516,0.01501 9.35e-4,0.02853 0.03845,0.03002 0.0363,9.32e-4 0.274822,0.05211 0.530281,0.112374 0.522246,0.123226 0.627046,0.135373 0.627046,0.07272 z"
     style="opacity:1;fill:#008080;fill-opacity:1;fill-rule:evenodd;stroke-width:0.1;stroke-miterlimit:4;stroke-dasharray:none" />
  <path
     id="path4173-7"
     d="M 107.65264,36.53149 C 90.138903,19.184685 71.744627,0.57871523 71.928138,0.39582485 72.055989,0.26843178 82.576674,0.59537469 93.57039,1.0684024 l 7.09417,0.3052306 2.4961,2.1652813 c 4.63302,4.0189738 30.86852,28.5359347 35.40155,33.0826037 1.20376,1.207368 2.14073,2.242967 2.08218,2.301326 -0.14026,0.139773 -6.22724,0.885188 -16.59532,2.032276 -4.62435,0.511632 -8.92861,0.990151 -9.56499,1.063427 l -1.15709,0.133191 -5.67435,-5.620248 z"
     style="opacity:1;fill:#9b0000;fill-opacity:1;fill-rule:evenodd;stroke-width:0.1;stroke-miterlimit:4;stroke-dasharray:none" />
  <g
     id="flowRoot11747-1"
     style="font-style:normal;font-variant:normal;font-weight:bold;font-stretch:normal;font-size:81.7959137px;line-height:125%;font-family:'Segoe Print';-inkscape-font-specification:'Segoe Print Bold';letter-spacing:0px;word-spacing:0px;fill:#008080;fill-opacity:1;stroke:none;stroke-width:1px;stroke-linecap:butt;stroke-linejoin:miter;stroke-opacity:1"
     transform="matrix(1.0628679,0,0,1.1351639,334.96725,4.1105936)">
    <path
       id="path4790"
       style=""
       d="m 13.13883,38.74225 q -1.038424,2.156728 -1.517697,11.901944 -0.199697,5.711336 -1.597577,9.545519 -1.3579398,3.834184 -3.5945468,3.834184 -2.5161829,0 -4.2335775,-1.597577 -1.6774553,-1.557637 -1.6774553,-4.553092 0,-2.636002 1.1582429,-7.268973 Q 4.272281,40.140129 7.4274945,6.7907209 7.6271916,5.4327809 9.0250709,4.1946592 10.46289,2.916598 12.020527,2.916598 q 5.272002,0 5.272002,6.5500634 0,2.9555166 -1.198182,9.3857616 -1.39788,7.388791 -1.39788,10.783641 0.319516,0.399394 2.875638,0.399394 5.591517,0 15.855946,-0.878667 10.264429,-0.878667 11.023277,-2.276546 0.798789,-1.39788 1.637516,-8.067761 0.878667,-6.709821 0.878667,-14.2583701 0,-1.1183036 1.677456,-2.6759406 1.677455,-1.59757642 3.594547,-1.59757642 2.196667,0 3.634486,1.39787942 1.477758,1.3978793 1.477758,3.4747287 0,2.9954558 -1.477758,10.86352 -1.677455,8.82661 -2.835698,22.645646 -1.118304,13.819036 -1.118304,18.372129 0,2.156728 -2.076849,4.273517 -2.076849,2.116789 -3.714365,2.116789 -1.757334,0 -3.39485,-1.318001 -1.637516,-1.318 -1.637516,-3.39485 0,-1.35794 1.078364,-9.305883 1.078364,-7.908003 1.078364,-10.863519 0,-1.917092 -0.758849,-1.917092 -1.877152,0 -7.42873,0.439333 -5.591518,0.479273 -7.628428,0.479273 -1.477758,0 -7.748245,0.439334 -6.230548,0.439333 -6.550064,0.758849 z" />
    <path
       id="path4792"
       style=""
       d="m 104.52021,28.717457 q 7.46867,2.636002 9.66533,6.310427 2.23661,3.674426 2.23661,7.229034 0,7.628427 -9.78516,15.696188 -9.785151,8.027822 -20.528853,8.027822 -5.990912,0 -5.990912,-3.634486 0,-5.990912 8.347337,-5.990912 l 1.957032,0 q 3.914062,0 9.865036,-4.513154 5.95097,-4.553092 5.95097,-9.226003 0,-2.835699 -2.4363,-5.032366 -2.43631,-2.236607 -6.510128,-2.236607 -0.319515,0 -3.155213,1.238121 -2.875638,1.238122 -4.233578,1.238122 -3.754304,0 -4.912547,-0.918606 -1.118304,-0.918607 -1.118304,-3.714365 0,-1.957032 8.14764,-5.272003 4.632972,-1.837213 9.26594,-6.270487 4.63297,-4.473214 4.63297,-7.548549 0,-3.954002 -5.75127,-3.954002 -5.391821,0 -10.583944,1.198183 -5.192124,1.198182 -5.751275,2.955516 -0.559152,1.757334 -2.955517,18.29225 -2.396364,16.534917 -2.396364,19.091039 l -0.399394,5.39182 q -0.319516,4.07382 -1.877153,5.232063 -1.557637,1.198182 -3.554607,1.198182 -5.351881,0 -5.351881,-6.909518 0,-1.078364 0.67897,-3.874123 1.757334,-7.229033 3.394849,-20.129463 1.677456,-12.900429 1.677456,-13.898915 0,-1.99697 -0.798788,-1.99697 l -1.078365,0.07988 q -1.198182,0.119818 -2.116788,-0.71891 -0.918607,-0.878667 -1.198183,-1.637516 -0.279576,-0.758848 -0.279576,-1.397879 0,-3.9540017 11.103157,-7.5086093 11.103156,-3.5546076 23.324613,-3.5546076 6.51013,0 10.54401,3.4747288 4.07382,3.4347893 4.07382,7.9878821 0,3.275032 -2.59606,6.669882 -2.59607,3.35491 -9.50558,8.626912 z" />
  </g>
  <g
     id="flowRoot11747-7"
     style="font-style:normal;font-variant:normal;font-weight:bold;font-stretch:normal;font-size:81.7959137px;line-height:125%;font-family:'Segoe Print';-inkscape-font-specification:'Segoe Print Bold';letter-spacing:0px;word-spacing:0px;fill:#9b0000;fill-opacity:1;stroke:none;stroke-width:3.29999995;stroke-linecap:butt;stroke-linejoin:miter;stroke-miterlimit:4;stroke-dasharray:none;stroke-opacity:1"
     transform="matrix(0.93518144,0,0,1.0215689,199.12122,6.0380465)">
    <path
       id="path4795"
       style="fill:#9b0000;fill-opacity:1;stroke:none;stroke-width:3.29999995;stroke-miterlimit:4;stroke-dasharray:none;stroke-opacity:1"
       d="m 58.629819,59.630562 q -0.599091,0.958545 -2.116788,1.637515 -1.477759,0.71891 -2.476244,0.71891 -2.67594,0 -4.872608,-2.71588 Q 47.007451,56.555227 42.773873,45.49201 38.540296,34.388854 38.100962,32.431823 l -9.865034,17.773038 q -8.18758,14.737642 -10.90346,14.737642 -1.957031,0 -3.35491,-0.958546 -1.397879,-0.918606 -2.675941,-3.674425 -1.238121,-2.75582 -3.3948496,-12.2614 Q 5.7500392,38.502613 3.9927052,28.797336 2.2753105,19.05212 1.7161587,16.775574 1.356704,15.257876 1.0371887,14.33927 -0.00123595,11.144117 -0.00123595,9.7062979 q 0,-1.7573341 1.55763705,-3.39485 1.557637,-1.6774552 3.6344864,-1.6774552 3.794244,0 5.3119415,6.0707903 1.517698,6.030851 1.717395,8.547034 l 1.038424,6.749761 q 0.479273,3.394849 1.238122,7.308912 0.798788,4.07382 1.278061,6.949457 1.597577,9.625398 2.07685,10.623884 7.46867,-11.901945 9.865034,-16.215401 2.396365,-4.353396 7.109215,-14.418128 0.559152,-0.998485 1.797274,-1.797273 1.278061,-0.838728 2.596062,-0.838728 1.717394,0 2.875637,1.757334 1.158243,1.757334 3.954002,9.026307 0.119818,0.439334 0.399394,1.078364 l 3.235092,8.547034 q 4.313457,11.462611 4.75279,11.742187 11.422672,-21.607221 13.699218,-44.2528673 0,-1.557637 1.35794,-2.4363041 1.39788,-0.9186064 3.195153,-0.9186064 2.476244,0 3.514668,1.557637 1.038425,1.5176976 1.038425,3.4347894 0,3.9540014 -2.156728,12.5010354 -2.156728,8.507095 -6.390306,18.412069 l -1.158243,2.755819 q -0.439333,1.158243 -6.430245,13.499521 -1.837213,3.794244 -2.476244,5.311942 z" />
    <path
       id="path4797"
       style="fill:#9b0000;fill-opacity:1;stroke:none;stroke-width:3.29999995;stroke-miterlimit:4;stroke-dasharray:none;stroke-opacity:1"
       d="m 132.23816,41.45813 0.0399,0 q -0.95855,3.275031 -1.91709,8.826609 -0.95855,5.511639 -0.95855,7.987883 0,4.593032 -0.0799,6.350366 -0.0399,1.757334 -0.71891,2.875638 -0.67897,1.118303 -1.75733,1.717394 -1.07837,0.639031 -2.43631,0.639031 -2.15673,0 -3.99394,-1.517698 -1.79727,-1.517697 -1.79727,-3.554607 0,-0.67897 1.1183,-5.831154 0.99849,-4.593033 1.59758,-7.868064 -13.3797,9.904974 -23.963648,9.904974 -7.149155,0 -11.382732,-4.153699 -4.193639,-4.153699 -4.193639,-11.382732 0,-11.422672 6.869579,-21.926737 l 0,0.03994 q 7.308912,-10.943398 17.25383,-17.2538251 9.98485,-6.3104269 19.92976,-6.3104269 5.15219,0 8.14764,1.9170917 2.99546,1.8771523 2.99546,4.7927293 0,2.4363041 -2.07685,5.391821 -2.03691,2.955516 -4.11376,2.955516 -1.318,0 -1.95703,-0.519212 -0.63903,-0.559152 -1.318,-2.156729 -0.75885,-1.797273 -1.75734,-2.5161825 -0.95854,-0.7588488 -2.8357,-0.7588488 -6.07079,0 -13.89891,5.9909113 -7.78819,5.950973 -12.660794,14.138552 -4.832668,8.14764 -4.832668,15.57637 0,7.828125 6.709821,7.828125 3.474731,0 8.307401,-1.797274 4.83266,-1.797273 10.30436,-5.631457 5.4717,-3.834183 6.55007,-6.989397 1.1183,-3.155213 1.67745,-6.949457 0.31952,-2.236607 1.63752,-2.955517 1.35794,-0.758848 3.63449,-0.758848 5.23206,0 5.23206,3.554607 0,1.39788 -1.35794,4.553093 -1.07837,2.396365 -1.99697,5.791215 z" />
  </g>
  <g
     style="fill:#9acd32;fill-opacity:1"
     transform="matrix(-0.22790554,0,0,0.2164143,515.78638,28.750734)"
     id="g12116">
    <path
       style="fill:#9acd32;fill-opacity:1"
       d="M 103.5,0 C 87.699,0.036 80.91,20.301 71.866,22.543 60.902,25.255 36.924,5.863 24.644,36.217 22.846,57.266 38.46,72.774 56.952,83.774 38.161,77.754 18.54,76.83 4.546,90.326 c -15.822,28.672 14.36,35.063 19.163,45.284 5.074,10.79 -15.112,37.314 16.621,47.389 8.862,0.935 16.507,-2.053 23.075,-7.456 1.908,-1.772 3.689,-3.59 5.383,-5.456 -5.351,10.885 -10.362,23.515 -13.675,37.425 -10.999,46.187 -5.184,48.591 -5.184,48.591 l 9.092,1.375 c 0,0 -0.7,-36.808 9.468,-63.51 3.585,-9.421 8.116,-19.877 12.437,-29.665 -2.649,15.838 -0.694,31.321 11.036,42.441 29.347,14.521 34.383,-15.917 44.38,-21.168 10.554,-5.55 37.973,13.419 46.62,-18.728 0.539,-8.9 -2.837,-16.392 -8.528,-22.71 -5.319,-5.241 -10.968,-9.51 -16.925,-13.21 5.126,1.5 10.409,2.618 16.022,3.245 8.49,0.433 16.412,-1.699 22.975,-7.729 4.265,-5.899 6.068,-10.926 6.255,-15.346 C 203.43,95.306 183.526,87.625 181.692,78.491 179.466,67.417 199.893,44.322 170.118,30.699 146.766,27.648 129.376,46.527 117.315,67.151 122.745,54.824 126.941,42.357 127.881,28.16 127.933,19.658 125.466,11.841 119.154,5.549 113.067,1.552 107.926,-0.011 103.5,0 l 0,0 z m 0,0"
       id="path12118" />
  </g>
  <g
     transform="scale(0.8640671,1.1573175)"
     style="font-style:normal;font-weight:normal;font-size:44.96229553px;line-height:125%;font-family:sans-serif;letter-spacing:0px;word-spacing:0px;fill:#008080;fill-opacity:1;stroke:none;stroke-width:1px;stroke-linecap:butt;stroke-linejoin:miter;stroke-opacity:1"
     id="text12159">
    <path
       d="m 258.25929,99.055829 q 0.83426,0 1.47093,0.614719 0.63667,0.592762 0.63667,1.514842 0,1.55875 -0.96598,6.82777 -1.18553,6.45455 -1.66853,13.76531 -0.48299,7.28881 -0.48299,9.13297 0,1.00989 -0.92208,1.99784 -0.90012,0.98794 -1.5807,0.98794 -0.72449,0 -1.36117,-0.59277 -0.63667,-0.57081 -0.63667,-1.44898 0,-0.79035 0.68058,-5.59833 0.57081,-4.06154 0.57081,-5.86178 0,-1.05381 -0.30736,-1.44898 -0.30736,-0.39518 -1.03185,-0.39518 -1.09771,0 -4.30303,0.2415 -3.46877,0.2854 -4.32498,0.2854 -0.90013,0 -4.58844,0.28541 -3.66636,0.2854 -4.06154,0.50494 -0.37322,0.19759 -0.79035,2.89796 -0.39518,2.67842 -0.48299,4.45672 -0.10977,3.05164 -0.70254,5.04947 -0.57081,1.97589 -1.49289,1.97589 -0.63667,0 -1.5807,-1.0099 -0.92208,-0.98794 -0.92208,-1.99784 0,-0.87817 0.5269,-3.00773 0.72449,-2.91991 1.73439,-10.42827 1.03184,-7.50835 1.77829,-15.60946 0.0439,-0.52691 0.59276,-1.07576 0.54886,-0.54886 1.16358,-0.54886 2.15151,0 2.15151,3.09555 0,1.8222 -0.79035,5.86178 -0.70253,3.64441 -0.70253,5.26902 0,0.68058 0.43908,0.98794 0.43909,0.30736 2.08565,0.30736 3.6005,0 9.68183,-0.57081 6.10328,-0.59276 6.56432,-1.66852 0.48299,-1.09771 0.96598,-4.9397 0.50495,-3.86395 0.50495,-8.05721 0,-0.483 0.68058,-1.141624 0.68058,-0.658627 1.47094,-0.658627 z"
       style="font-style:normal;font-variant:normal;font-weight:normal;font-stretch:normal;font-family:'Segoe Print';-inkscape-font-specification:'Segoe Print';fill:#008080;fill-opacity:1"
       id="path4251" />
    <path
       d="m 280.10376,124.63253 q -3.07359,4.12739 -6.08133,6.19109 -3.00773,2.0637 -5.51051,2.0637 -1.69048,0 -2.91992,-1.42702 -1.22943,-1.42703 -1.22943,-3.66636 0,-5.77397 5.15924,-12.42611 5.15925,-6.67409 10.25264,-6.67409 1.84415,0 2.74428,2.10761 0.2854,0.70254 0.90012,0.70254 1.75634,0 1.75634,1.36116 0,0.68058 -0.21954,1.86611 -1.18553,6.4765 -1.18553,9.13297 0,5.31292 2.01979,6.36673 0.96599,0.5269 0.96599,1.2953 0,0.68058 -0.94404,1.36116 -0.94403,0.70254 -1.8222,0.70254 -1.69047,0 -2.78819,-2.32715 -1.09771,-2.32715 -1.09771,-6.63018 z m -1.33921,-12.36025 q -2.89796,0 -6.73995,5.44466 -3.84199,5.4227 -3.84199,9.00124 0,2.52474 1.66852,2.52474 2.41497,0 6.69604,-4.87385 4.28108,-4.87384 4.28108,-8.95733 0,-3.13946 -2.0637,-3.13946 z"
       style="font-style:normal;font-variant:normal;font-weight:normal;font-stretch:normal;font-family:'Segoe Print';-inkscape-font-specification:'Segoe Print';fill:#008080;fill-opacity:1"
       id="path4253" />
    <path
       d="m 308.31497,115.25806 q -2.04175,0.0439 -8.73779,12.09679 -2.26129,4.06154 -2.63451,4.43476 -0.37323,0.35127 -1.38312,0.63667 -0.98794,0.28541 -1.64657,0.28541 -1.47093,0 -1.47093,-5.73006 0,-3.22727 1.38311,-11.67966 0.57081,-3.42486 0.57081,-4.8958 0,-1.44898 1.2953,-1.44898 2.43693,0 2.43693,3.51268 0,1.64657 -0.81231,6.45455 -0.94403,5.48856 -0.96599,6.67409 1.36116,-1.31725 3.99567,-5.77396 3.73223,-6.10328 5.48857,-7.7279 1.77829,-1.64657 3.66635,-1.64657 1.42703,0 2.26129,1.91002 0.85622,1.91002 1.03185,9.11101 0.0439,1.80025 0.32932,2.67842 0.2854,0.87817 0.41713,0.87817 1.03185,0 4.47866,-7.02536 1.84416,-3.71026 3.57854,-5.64224 1.75634,-1.93197 3.88591,-1.93197 1.77829,0 2.5906,1.84415 0.8123,1.82221 1.16357,5.4227 0.32932,3.64441 1.0099,6.67409 0.70253,3.02969 2.54669,3.88591 1.25139,0.59276 1.25139,1.38311 0,0.7684 -1.0538,1.58071 -1.05381,0.81231 -1.93198,0.81231 -1.75634,0 -3.13945,-2.15152 -1.38312,-2.15152 -2.08566,-9.3086 -0.30736,-2.87601 -0.59276,-4.08349 -0.28541,-1.20748 -0.90012,-1.20748 -0.92208,0 -2.19543,1.75634 -1.25139,1.75634 -4.06153,7.13513 -2.19543,4.19326 -3.33705,5.59833 -1.11967,1.38312 -2.17347,1.38312 -0.94403,0 -1.69048,-0.74645 -0.74644,-0.7684 -0.94403,-1.8222 -0.19759,-1.07576 -0.41713,-5.24707 -0.32931,-6.93754 -1.20748,-8.07916 z"
       style="font-style:normal;font-variant:normal;font-weight:normal;font-stretch:normal;font-family:'Segoe Print';-inkscape-font-specification:'Segoe Print';fill:#008080;fill-opacity:1"
       id="path4255" />
    <path
       d="m 354.5067,115.25806 q -2.04174,0.0439 -8.73779,12.09679 -2.26129,4.06154 -2.63451,4.43476 -0.37322,0.35127 -1.38312,0.63667 -0.98794,0.28541 -1.64657,0.28541 -1.47093,0 -1.47093,-5.73006 0,-3.22727 1.38312,-11.67966 0.57081,-3.42486 0.57081,-4.8958 0,-1.44898 1.2953,-1.44898 2.43692,0 2.43692,3.51268 0,1.64657 -0.81231,6.45455 -0.94403,5.48856 -0.96598,6.67409 1.36116,-1.31725 3.99567,-5.77396 3.73222,-6.10328 5.48856,-7.7279 1.77829,-1.64657 3.66636,-1.64657 1.42703,0 2.26129,1.91002 0.85621,1.91002 1.03185,9.11101 0.0439,1.80025 0.32931,2.67842 0.28541,0.87817 0.41713,0.87817 1.03185,0 4.47867,-7.02536 1.84415,-3.71026 3.57854,-5.64224 1.75634,-1.93197 3.8859,-1.93197 1.77829,0 2.5906,1.84415 0.81231,1.82221 1.16358,5.4227 0.32931,3.64441 1.00989,6.67409 0.70254,3.02969 2.54669,3.88591 1.2514,0.59276 1.2514,1.38311 0,0.7684 -1.05381,1.58071 -1.0538,0.81231 -1.93197,0.81231 -1.75634,0 -3.13946,-2.15152 -1.38312,-2.15152 -2.08565,-9.3086 -0.30736,-2.87601 -0.59277,-4.08349 -0.2854,-1.20748 -0.90012,-1.20748 -0.92208,0 -2.19543,1.75634 -1.25139,1.75634 -4.06153,7.13513 -2.19543,4.19326 -3.33705,5.59833 -1.11966,1.38312 -2.17347,1.38312 -0.94403,0 -1.69047,-0.74645 -0.74645,-0.7684 -0.94404,-1.8222 -0.19758,-1.07576 -0.41713,-5.24707 -0.32931,-6.93754 -1.20748,-8.07916 z"
       style="font-style:normal;font-variant:normal;font-weight:normal;font-stretch:normal;font-family:'Segoe Print';-inkscape-font-specification:'Segoe Print';fill:#008080;fill-opacity:1"
       id="path4257" />
    <path
       d="m 402.91581,125.18138 q 0,2.23933 -3.97372,5.40075 -3.95176,3.16141 -8.16697,3.16141 -3.53464,0 -5.46661,-2.08566 -1.91002,-2.08565 -1.91002,-5.81787 0,-6.27892 4.23717,-11.94311 4.23717,-5.6642 9.26469,-5.6642 1.64657,0 2.67842,1.07576 1.0538,1.07576 1.0538,2.5906 0,3.38096 -3.31509,6.47651 -3.31509,3.09554 -8.86951,6.08132 -1.14163,0.59277 -1.14163,1.5368 0,1.8222 1.05381,2.91991 1.0538,1.09772 3.1175,1.09772 4.72016,0 9.63791,-5.22511 0.7245,-0.7245 1.09772,-0.7245 0.70253,0 0.70253,1.11967 z m -15.2582,-3.42486 q 9.3086,-5.53247 9.3086,-8.89147 0,-1.31726 -1.18553,-1.31726 -2.01979,0 -4.56648,2.96383 -2.52474,2.96382 -3.55659,7.2449 z"
       style="font-style:normal;font-variant:normal;font-weight:normal;font-stretch:normal;font-family:'Segoe Print';-inkscape-font-specification:'Segoe Print';fill:#008080;fill-opacity:1"
       id="path4259" />
    <path
       d="m 411.91705,123.90804 q 0.21954,-0.39518 0.5269,-1.09772 1.49289,-3.42486 2.74428,-5.35683 1.25139,-1.95393 2.74428,-3.73222 1.51485,-1.7783 2.74428,-2.70038 1.2514,-0.92208 2.26129,-1.27334 1.0099,-0.37323 1.95393,-0.37323 1.91002,0 3.1175,1.16358 1.20749,1.14162 1.20749,2.67842 0,0.68058 -0.43909,1.22944 -0.41713,0.54885 -1.2953,0.54885 -0.92208,0 -1.69048,-0.81231 -0.79035,-0.8123 -1.64656,-0.8123 -2.28325,0 -6.32283,5.53247 -4.03958,5.53247 -4.91775,12.1846 -0.21954,1.71243 -0.83426,2.26129 -0.61472,0.54886 -1.73439,0.54886 -1.07575,0 -1.55875,-1.60266 -0.48299,-1.60266 -0.48299,-5.40075 0,-1.03185 0.10977,-4.54453 0.13173,-4.14935 0.5269,-6.69604 0.0659,-0.41713 0.21955,-1.95393 0.15368,-1.69048 0.37322,-2.3491 0.24149,-0.65863 0.94403,-1.22944 0.72449,-0.57081 1.55875,-0.57081 0.81231,0 1.20749,0.5269 0.41713,0.50495 0.41713,1.09771 0,0.85622 -0.43909,2.41497 -0.50495,1.73439 -0.59276,2.39301 -0.0659,0.74645 -0.2415,1.55875 -0.21954,0.94404 -0.43909,4.96166 l -0.022,0.81231 0,0.59277 z"
       style="font-style:normal;font-variant:normal;font-weight:normal;font-stretch:normal;font-family:'Segoe Print';-inkscape-font-specification:'Segoe Print';fill:#008080;fill-opacity:1"
       id="path4261" />
    <path
       d="m 435.73741,120.1319 q 2.81014,-5.11533 6.718,-8.27675 3.90785,-3.18336 7.04731,-3.18336 1.73438,0 2.94187,1.60266 1.20748,1.60266 1.20748,3.90785 0,6.82777 -5.15925,12.82128 -5.13729,5.97156 -10.86735,5.97156 -1.55875,0 -2.876,-0.83426 -1.2953,-0.85622 -1.44898,-2.12956 -0.0878,-1.03185 -0.59277,-1.5368 -0.94403,-0.94403 -0.94403,-2.01979 0,-1.99784 1.09771,-8.5402 l 2.26129,-13.12864 q 1.16357,-6.608231 1.69048,-8.166982 0.54885,-1.558752 1.20748,-2.085654 0.65863,-0.526902 1.62461,-0.526902 1.5368,0 1.5368,2.656464 0,2.524738 -1.69048,7.069264 -1.62461,4.3689 -3.75417,16.39982 z m -0.5269,7.31077 q 1.14162,2.12956 2.76623,2.12956 2.50278,0 5.29097,-2.0637 2.78819,-2.08565 4.80798,-5.83983 2.04175,-3.77613 2.04175,-6.36673 0,-1.16357 -0.41713,-1.99784 -0.41713,-0.83426 -1.05381,-0.83426 -3.05164,0 -7.46444,5.00557 -4.39085,4.98362 -5.97155,9.96723 z"
       style="font-style:normal;font-variant:normal;font-weight:normal;font-stretch:normal;font-family:'Segoe Print';-inkscape-font-specification:'Segoe Print';fill:#008080;fill-opacity:1"
       id="path4263" />
    <path
       d="m 472.68641,124.63253 q -3.0736,4.12739 -6.08133,6.19109 -3.00773,2.0637 -5.51052,2.0637 -1.69047,0 -2.91991,-1.42702 -1.22944,-1.42703 -1.22944,-3.66636 0,-5.77397 5.15925,-12.42611 5.15925,-6.67409 10.25263,-6.67409 1.84416,0 2.74428,2.10761 0.28541,0.70254 0.90013,0.70254 1.75634,0 1.75634,1.36116 0,0.68058 -0.21955,1.86611 -1.18552,6.4765 -1.18552,9.13297 0,5.31292 2.01979,6.36673 0.96598,0.5269 0.96598,1.2953 0,0.68058 -0.94403,1.36116 -0.94403,0.70254 -1.8222,0.70254 -1.69048,0 -2.78819,-2.32715 -1.09771,-2.32715 -1.09771,-6.63018 z m -1.33921,-12.36025 q -2.89796,0 -6.73996,5.44466 -3.84199,5.4227 -3.84199,9.00124 0,2.52474 1.66852,2.52474 2.41497,0 6.69605,-4.87385 4.28108,-4.87384 4.28108,-8.95733 0,-3.13946 -2.0637,-3.13946 z"
       style="font-style:normal;font-variant:normal;font-weight:normal;font-stretch:normal;font-family:'Segoe Print';-inkscape-font-specification:'Segoe Print';fill:#008080;fill-opacity:1"
       id="path4265" />
    <path
       d="m 490.31566,133.87526 q -3.29314,0 -5.07143,-1.88806 -1.75634,-1.88807 -1.75634,-5.29098 0,-5.73005 4.54453,-12.07483 4.54453,-6.36673 8.45238,-6.36673 1.7783,0 3.05164,1.93197 1.2953,1.91002 1.2953,4.06154 0,1.2953 -0.57081,2.23933 -0.54885,0.92208 -1.11966,0.92208 -1.27335,0 -1.80025,-2.56865 -0.59277,-2.76623 -1.71243,-2.76623 -2.28324,0 -5.40075,5.4227 -3.1175,5.42269 -3.1175,9.15492 0,3.73222 4.23717,3.73222 3.22727,0 7.59617,-3.02969 1.5368,-1.07576 2.26129,-1.07576 0.74644,0 0.74644,0.85622 0,1.66852 -3.92981,4.21521 -3.92981,2.52474 -7.70594,2.52474 z"
       style="font-style:normal;font-variant:normal;font-weight:normal;font-stretch:normal;font-family:'Segoe Print';-inkscape-font-specification:'Segoe Print';fill:#008080;fill-opacity:1"
       id="path4267" />
    <path
       d="m 510.75508,126.0376 q 8.16698,-15.08257 13.45795,-15.08257 1.40507,0 2.28324,1.60266 0.87817,1.60266 1.42703,7.11318 0.54885,5.86178 2.48083,8.47433 0.98794,1.33921 0.98794,1.97589 0,0.57081 -0.65863,1.0538 -0.65863,0.48299 -1.40507,0.48299 -1.71243,0 -3.02969,-1.91002 -1.31725,-1.93197 -1.69047,-6.7619 -0.37323,-4.56649 -0.79036,-5.97156 -0.41713,-1.40507 -1.38312,-1.40507 -2.30519,0 -9.28664,12.05288 -2.08565,3.6005 -3.0736,4.72016 -0.98794,1.09772 -1.80024,1.09772 -0.96599,0 -1.62462,-0.57081 -0.65863,-0.57081 -0.65863,-1.40508 0,-0.61471 0.35127,-2.37105 2.70037,-13.94095 4.25913,-27.57454 0.35126,-3.183363 1.11966,-4.237167 0.79036,-1.053803 1.31726,-1.053803 0.94403,0 1.71243,0.768398 0.7684,0.768399 0.7684,2.129562 0,4.03958 -1.97588,11.08689 -0.96599,3.49073 -2.04175,8.86952 -1.07576,5.37879 -1.07576,6.65214 0,0.26345 0.2415,0.26345 l 0.0878,0 z"
       style="font-style:normal;font-variant:normal;font-weight:normal;font-stretch:normal;font-family:'Segoe Print';-inkscape-font-specification:'Segoe Print';fill:#008080;fill-opacity:1"
       id="path4269" />
  </g>
  <g
     transform="scale(0.98830467,1.0118337)"
     style="font-style:normal;font-weight:normal;font-size:16.56335258px;line-height:125%;font-family:sans-serif;letter-spacing:0px;word-spacing:0px;fill:#9b0000;fill-opacity:1;stroke:none;stroke-width:1px;stroke-linecap:butt;stroke-linejoin:miter;stroke-opacity:1"
     id="text12159-2">
    <path
       d="m 224.92419,81.401953 q -0.27498,0.372029 -1.01095,1.674128 -3.06519,5.515726 -3.42913,5.515726 -0.54995,0 -0.88963,-0.647006 -0.33968,-0.638918 -0.93816,-3.404869 -0.59039,-2.76595 -1.00286,-5.289273 -0.15366,-0.711707 -0.29924,-1.164611 -0.20219,-0.606568 -0.20219,-0.905808 0,-0.315416 0.23454,-0.566131 0.24263,-0.258802 0.53378,-0.258802 0.35586,0 0.61466,0.549955 0.26689,0.541867 0.59039,2.644637 0.69553,4.569479 1.42341,6.906788 2.0219,-3.226942 2.51524,-4.1004 0.49334,-0.881545 1.39106,-2.838738 0.23454,-0.428642 0.64701,-0.428642 0.17792,0 0.40438,0.355853 0.22645,0.347766 0.79258,1.932931 1.40724,3.922473 1.91675,4.706968 2.84683,-4.706968 3.30782,-9.761702 0,-0.113226 0.21028,-0.307328 0.21836,-0.20219 0.41247,-0.20219 0.647,0 0.647,0.824933 0,0.857283 -0.43673,2.571849 -0.42864,1.706478 -1.03521,3.154154 -0.59848,1.439588 -2.02189,4.391553 -0.23454,0.477167 -0.39629,0.849195 -0.0809,0.153664 -0.31542,0.258802 -0.22645,0.105139 -0.36394,0.105139 -0.34776,0 -0.70362,-0.380116 -0.35585,-0.380116 -1.08373,-2.224083 -0.72788,-1.852055 -1.05139,-2.782126 -0.22645,-0.638918 -0.46099,-1.180786 z"
       style="font-style:normal;font-variant:normal;font-weight:normal;font-stretch:normal;font-family:'Segoe Print';-inkscape-font-specification:'Segoe Print';fill:#9b0000;fill-opacity:1"
       id="path4230" />
    <path
       d="m 235.98799,88.203604 q -1.10799,0 -1.82779,-0.841108 -0.71979,-0.841108 -0.71979,-2.078507 0,-2.086594 1.39915,-4.108488 1.40724,-2.029981 3.36443,-2.029981 1.29401,0 2.09468,0.994772 0.80876,0.994771 0.80876,2.369659 0,2.102769 -1.66604,3.898211 -1.65796,1.795442 -3.4534,1.795442 z m -1.12417,-3.129892 q 0,0.816845 0.33968,1.33445 0.34776,0.517605 0.91389,0.517605 1.20505,0 2.41819,-1.318275 1.21313,-1.326362 1.21313,-2.943877 0,-0.994772 -0.46907,-1.609427 -0.461,-0.622744 -1.24549,-0.622744 -1.3021,0 -2.24026,1.60134 -0.93007,1.593252 -0.93007,3.040928 z"
       style="font-style:normal;font-variant:normal;font-weight:normal;font-stretch:normal;font-family:'Segoe Print';-inkscape-font-specification:'Segoe Print';fill:#9b0000;fill-opacity:1"
       id="path4232" />
    <path
       d="m 244.33437,85.372953 q 3.00858,-5.556164 4.95768,-5.556164 0.51761,0 0.84111,0.590393 0.3235,0.590393 0.52569,2.620374 0.20219,2.159382 0.9139,3.121804 0.36394,0.493342 0.36394,0.727881 0,0.210277 -0.24263,0.388204 -0.24263,0.177927 -0.5176,0.177927 -0.63083,0 -1.11609,-0.703619 -0.48525,-0.711707 -0.62274,-2.490973 -0.13749,-1.682216 -0.29115,-2.199821 -0.15367,-0.517604 -0.50952,-0.517604 -0.8492,0 -3.42105,4.440078 -0.76831,1.326362 -1.13226,1.738829 -0.36394,0.404378 -0.66318,0.404378 -0.35585,0 -0.59848,-0.210277 -0.24262,-0.210277 -0.24262,-0.517604 0,-0.226453 0.1294,-0.873458 0.99477,-5.13561 1.56899,-10.157994 0.1294,-1.172698 0.41246,-1.560902 0.29116,-0.388204 0.48526,-0.388204 0.34776,0 0.63083,0.283066 0.28306,0.283065 0.28306,0.784494 0,1.488114 -0.72788,4.084225 -0.35585,1.285925 -0.75214,3.267381 -0.39629,1.981455 -0.39629,2.450535 0,0.09705 0.089,0.09705 l 0.0324,0 z"
       style="font-style:normal;font-variant:normal;font-weight:normal;font-stretch:normal;font-family:'Segoe Print';-inkscape-font-specification:'Segoe Print';fill:#9b0000;fill-opacity:1"
       id="path4234" />
    <path
       d="m 258.90009,81.57988 q -0.42056,0 -0.92198,0.549955 -0.49335,0.549955 -1.51238,2.46671 -1.34254,2.571849 -1.73883,2.927702 -0.3882,0.355854 -0.64701,0.355854 -0.95433,0 -0.95433,-0.921984 0,-0.388203 0.1294,-1.09991 0.44482,-2.442448 0.44482,-5.151785 0,-0.307328 0.2588,-0.679356 0.26689,-0.380116 0.50143,-0.380116 0.42055,0 0.59848,0.258802 0.17793,0.258803 0.17793,1.043297 0,0.816845 -0.48526,3.364431 -0.16175,0.841108 -0.16175,1.06756 0,0.129401 0.0647,0.129401 0.12132,0 1.12417,-1.93293 1.01095,-1.965281 1.77118,-2.765951 0.76024,-0.800669 1.67413,-0.800669 0.72788,0 1.18079,0.663181 0.46099,0.663181 0.67127,2.418184 0.22645,1.997631 0.40437,2.490973 0.18602,0.485255 0.58231,0.485255 0.25072,0 0.63083,-0.177927 0.0647,-0.03235 0.0971,-0.03235 0.34777,0 0.34777,0.404379 0,0.355853 -0.47717,0.760232 -0.47717,0.396291 -1.14843,0.396291 -0.68745,0 -1.06756,-0.541868 -0.37203,-0.549955 -0.5904,-2.919614 -0.22645,-2.377747 -0.95433,-2.377747 z"
       style="font-style:normal;font-variant:normal;font-weight:normal;font-stretch:normal;font-family:'Segoe Print';-inkscape-font-specification:'Segoe Print';fill:#9b0000;fill-opacity:1"
       id="path4236" />
    <path
       d="m 270.10947,84.871523 q -0.097,-0.07279 -0.54187,0.452904 -0.73597,0.865371 -1.8844,1.536639 -1.14035,0.671269 -2.11895,0.671269 -0.72788,0 -1.14035,-0.452904 -0.41246,-0.460992 -0.41246,-1.269749 0,-1.253575 0.94624,-2.790214 0.94625,-1.544726 2.64464,-2.693162 1.70648,-1.148436 2.98432,-1.148436 0.67126,0 1.18078,0.388204 0.12132,0.09705 0.21028,0.161751 0.14558,0.105139 0.27498,0.428642 0.1294,0.315415 0.1294,0.509517 0,0.121314 -0.089,0.372029 -0.49334,1.342537 -0.67126,2.224083 -0.17793,0.881545 -0.38821,2.968139 -0.1941,1.876318 -0.42055,2.887264 -0.22645,1.010947 -0.81685,1.957194 -0.59039,0.946246 -1.41532,1.415325 -0.82494,0.477167 -1.69839,0.477167 -1.51238,0 -2.98432,-1.043297 -1.47194,-1.043297 -1.47194,-1.674128 0,-0.396291 0.29924,-0.396291 0.14558,0 0.86537,0.477167 1.90058,1.269749 3.42105,1.269749 1.32636,0 2.0138,-1.415326 0.69554,-1.415325 0.94625,-4.229801 0.0566,-0.638919 0.13749,-1.083735 z m -0.0162,-4.440079 q -0.68744,0 -1.72265,0.711707 -1.02712,0.711707 -1.99763,2.086594 -0.97051,1.374888 -0.97051,2.304959 0,0.315415 0.1941,0.50143 0.20219,0.177926 0.44482,0.177926 0.71979,0 1.87632,-0.744057 1.16461,-0.744056 1.99763,-2.062331 0.84111,-1.326362 0.84111,-2.078507 0,-0.897721 -0.66319,-0.897721 z"
       style="font-style:normal;font-variant:normal;font-weight:normal;font-stretch:normal;font-family:'Segoe Print';-inkscape-font-specification:'Segoe Print';fill:#9b0000;fill-opacity:1"
       id="path4238" />
    <path
       d="m 280.8255,85.057537 q 0,0.824933 -1.46385,1.989543 -1.45576,1.164611 -3.00857,1.164611 -1.3021,0 -2.01381,-0.768319 -0.70362,-0.76832 -0.70362,-2.143208 0,-2.313046 1.5609,-4.39964 1.5609,-2.086594 3.41296,-2.086594 0.60657,0 0.98668,0.396291 0.38821,0.396291 0.38821,0.954334 0,1.245486 -1.22123,2.385834 -1.22122,1.140348 -3.26738,2.240258 -0.42055,0.218365 -0.42055,0.56613 0,0.671269 0.3882,1.075648 0.38821,0.404378 1.14844,0.404378 1.73883,0 3.55044,-1.924842 0.26689,-0.26689 0.40438,-0.26689 0.2588,0 0.2588,0.412466 z m -5.62086,-1.261662 q 3.42913,-2.038068 3.42913,-3.275467 0,-0.485255 -0.43673,-0.485255 -0.74405,0 -1.68221,1.091823 -0.93007,1.091822 -1.31019,2.668899 z"
       style="font-style:normal;font-variant:normal;font-weight:normal;font-stretch:normal;font-family:'Segoe Print';-inkscape-font-specification:'Segoe Print';fill:#9b0000;fill-opacity:1"
       id="path4240" />
    <path
       d="m 283.98775,83.197395 q 1.03521,-1.884405 2.4748,-3.049016 1.43959,-1.172698 2.59611,-1.172698 0.63892,0 1.08373,0.590393 0.44482,0.590393 0.44482,1.439588 0,2.515236 -1.90058,4.723144 -1.89249,2.19982 -4.00335,2.19982 -0.57422,0 -1.05947,-0.307328 -0.47717,-0.315415 -0.53378,-0.784495 -0.0324,-0.380116 -0.21837,-0.56613 -0.34776,-0.347765 -0.34776,-0.744057 0,-0.735969 0.40438,-3.146066 l 0.83302,-4.83637 q 0.42864,-2.43436 0.62274,-3.008577 0.20219,-0.574218 0.44482,-0.76832 0.24262,-0.194102 0.59848,-0.194102 0.56613,0 0.56613,0.978597 0,0.930071 -0.62275,2.604199 -0.59848,1.609427 -1.38297,6.041418 z m -0.1941,2.693162 q 0.42055,0.784495 1.01903,0.784495 0.92199,0 1.94911,-0.760232 1.02712,-0.76832 1.77118,-2.151295 0.75214,-1.391063 0.75214,-2.345396 0,-0.428642 -0.15366,-0.73597 -0.15367,-0.307328 -0.38821,-0.307328 -1.12417,0 -2.74977,1.843967 -1.61752,1.83588 -2.19982,3.671759 z"
       style="font-style:normal;font-variant:normal;font-weight:normal;font-stretch:normal;font-family:'Segoe Print';-inkscape-font-specification:'Segoe Print';fill:#9b0000;fill-opacity:1"
       id="path4242" />
    <path
       d="m 294.75231,76.969963 q -0.16984,0 -0.2588,-0.363941 -0.0324,-0.113226 -0.089,-0.250715 -0.21836,-0.525692 -0.21836,-0.913896 0,-0.323503 0.38012,-0.655094 0.3882,-0.339678 0.85728,-0.339678 0.23454,0 0.52569,0.186015 0.29115,0.177926 0.29115,0.347765 0,0.26689 -0.20219,0.905809 -0.1941,0.638918 -0.63083,0.86537 -0.42864,0.218365 -0.65509,0.218365 z m -1.05947,9.03382 q 0,0.614656 0.16984,1.382976 0.0324,0.145576 0.0324,0.242627 0,0.145576 -0.26689,0.372028 -0.26689,0.23454 -0.56613,0.23454 -0.7845,0 -0.7845,-1.439588 0,-1.488114 0.61466,-4.706969 0.21028,-1.124173 0.21028,-1.382975 0,-0.509517 0.18601,-0.86537 0.18601,-0.363941 0.52569,-0.363941 0.41247,0 0.64701,0.202189 0.24262,0.194102 0.24262,0.436729 0,0.242627 -0.11322,0.638918 -0.60657,2.13512 -0.75215,3.057104 -0.14557,0.921983 -0.14557,2.191732 z"
       style="font-style:normal;font-variant:normal;font-weight:normal;font-stretch:normal;font-family:'Segoe Print';-inkscape-font-specification:'Segoe Print';fill:#9b0000;fill-opacity:1"
       id="path4244" />
    <path
       d="m 303.85892,85.057537 q 0,0.824933 -1.46385,1.989543 -1.45577,1.164611 -3.00858,1.164611 -1.3021,0 -2.01381,-0.768319 -0.70362,-0.76832 -0.70362,-2.143208 0,-2.313046 1.56091,-4.39964 1.5609,-2.086594 3.41295,-2.086594 0.60657,0 0.98669,0.396291 0.3882,0.396291 0.3882,0.954334 0,1.245486 -1.22122,2.385834 -1.22123,1.140348 -3.26738,2.240258 -0.42056,0.218365 -0.42056,0.56613 0,0.671269 0.38821,1.075648 0.3882,0.404378 1.14843,0.404378 1.73883,0 3.55045,-1.924842 0.26689,-0.26689 0.40437,-0.26689 0.25881,0 0.25881,0.412466 z m -5.62087,-1.261662 q 3.42913,-2.038068 3.42913,-3.275467 0,-0.485255 -0.43672,-0.485255 -0.74406,0 -1.68222,1.091823 -0.93007,1.091822 -1.31019,2.668899 z"
       style="font-style:normal;font-variant:normal;font-weight:normal;font-stretch:normal;font-family:'Segoe Print';-inkscape-font-specification:'Segoe Print';fill:#9b0000;fill-opacity:1"
       id="path4246" />
    <path
       d="m 308.83277,79.638862 q 0.83303,-0.0647 1.56899,-0.153664 0.72789,-0.08087 1.21314,-0.08087 0.61466,0 0.77641,0.113226 0.16175,0.113226 0.16175,0.396291 0,0.655093 -0.9139,0.711706 -1.1727,0.07279 -2.15938,0.20219 -0.98668,0.129401 -1.06756,0.218364 -0.0728,0.08088 -0.48525,1.924843 -0.41247,1.835879 -0.41247,2.385834 0,0.889634 0.23454,1.188874 0.23454,0.291152 0.70362,0.291152 0.69553,0 1.93293,-1.043297 0.47717,-0.428641 0.73597,-0.428641 0.34776,0 0.34776,0.372028 0,0.582306 -1.12417,1.512377 -1.11608,0.921983 -2.28878,0.921983 -1.9572,0 -1.9572,-2.304958 0,-0.833021 0.40438,-2.579937 0.39629,-1.738828 0.39629,-2.086594 0,-0.121314 -0.1941,-0.121314 l -0.8411,0.07279 q -1.03521,0 -1.03521,-0.824933 0,-0.469079 0.47716,-0.469079 l 1.66604,0 q 0.16984,0 0.29924,-0.153664 0.1294,-0.153664 0.38012,-1.027122 0.25071,-0.881546 0.44482,-1.738829 0.1941,-0.849195 0.76023,-0.849195 0.34776,0 0.54187,0.242627 0.1941,0.242627 0.1941,0.452904 0,0.113226 -0.29116,1.156524 l -0.46908,1.69839 z"
       style="font-style:normal;font-variant:normal;font-weight:normal;font-stretch:normal;font-family:'Segoe Print';-inkscape-font-specification:'Segoe Print';fill:#9b0000;fill-opacity:1"
       id="path4248" />
  </g>
</svg>
